inDegrees=yes
name=ik_coleta2_mov
DataType=double
version=3
OpenSimVersion=4.4-2022-07-23-0e9fedc
endheader
time	pelvis_tilt	pelvis_list	pelvis_rotation	pelvis_tx	pelvis_ty	pelvis_tz	hip_flexion_r	hip_adduction_r	hip_rotation_r	knee_angle_r	knee_angle_r_beta	ankle_angle_r	subtalar_angle_r	mtp_angle_r	hip_flexion_l	hip_adduction_l	hip_rotation_l	knee_angle_l	knee_angle_l_beta	ankle_angle_l	subtalar_angle_l	mtp_angle_l	lumbar_extension	lumbar_bending	lumbar_rotation	arm_flex_r	arm_add_r	arm_rot_r	elbow_flex_r	pro_sup_r	wrist_flex_r	wrist_dev_r	arm_flex_l	arm_add_l	arm_rot_l	elbow_flex_l	pro_sup_l	wrist_flex_l	wrist_dev_l
7.80895209312439	89.99999999999901	0	0	0	0.93	0	-82.80543630752382	-1.376025843849134	-0.8934850883244025	9.522038346679814	0.16619092065072	0	0	0	44.4526914377231	0	0	0	0	0	0	0	0	0	0	0	0	0	0	0	0	0	0	0	0	0	0	0	0
7.824962139129639	89.99999999999901	-1.324118008722933e-33	0	0	0.93	0	-80.93770725402179	0.2698250594043713	0.02155580266669995	0.04055944106562189	0.0007078957893636995	0	0	0	44.45404028689472	0	0	0	0	0	0	0	0	0	0	0	0	0	0	0	0	0	0	0	0	0	0	0	0
7.835964918136597	89.99999999999901	0	0	0	0.93	0	-79.59021727634664	0.750884113081434	-0.07210653266991296	0.02069228767876195	0.0003611485497642508	0	0	0	44.45453818310816	0	0	0	-1.368455531567204e-48	0	0	0	0	0	0	0	0	0	0	6.860588560886585e-46	0	0	0	0	0	0	6.860588560886585e-46	0	0
7.845959901809692	89.99999999999901	0	0	0	0.93	0	-78.929610637547	0.8533259407694757	-0.1032047881332296	0.01671857259321868	0.0002917941379853525	0	0	0	44.45504558351363	0	0	0	0	0	0	0	0	0	0	0	0	0	0	0	0	0	0	0	0	0	0	0	0
7.868997812271118	89.99999999999901	0	0	0	0.93	0	-77.05810045150338	1.447533859870683	0.01110064526505146	0.01102548195320973	0.0001924309617027251	0	0	0	44.4555627155686	0	0	3.528302688455958e-46	6.269637818698768e-48	0	0	0	0	0	0	0	0	0	0	3.528302688455958e-46	0	0	0	0	0	0	3.528302688455958e-46	0	0
7.87795615196228	89.99999999999901	5.549711287831621e-34	-3.448364295351686e-34	0	0.93	0	-75.36375310997131	1.885569976017865	0.2349023589854784	0.008457605908377344	0.0001476130699373105	0	0	0	44.45611082674773	0	0	1.215304259357052e-45	5.246250827886475e-48	0	0	0	0	0	0	0	0	0	1.215304259357052e-45	3.92033632050662e-46	0	-6.375655733350659e-66	0	0	0	1.215304259357052e-45	3.92033632050662e-46	0	-6.375655733350659e-66
7.893959999084473	89.99999999999901	0	0	0	0.93	0	-72.38916616073168	2.470442974803066	0.5918592671777753	0.00601200017352935	0.0001049291976585576	0	0	0	44.45660163453317	0	0	0	0	0	0	0	0	0	0	0	0	0	0	0	0	0	0	0	0	0	0	0	0
7.90195894241333	89.99999999999901	0	0	0	0.93	0	-71.13210400116193	2.419871934546373	0.6220867502202706	0.005310891531387448	9.269254343899473e-05	0	0	0	44.45702995852055	0	0	0	0	0	0	0	0	0	0	0	0	0	0	0	0	0	0	0	0	0	0	0	0
7.926951885223389	89.99999999999901	0	0	0	0.93	0	-70.50447972439565	2.354263522055052	0.6633045632992485	0.005022538290251051	8.765982997236747e-05	0	0	0	44.45767734156765	0	0	0	0	0	0	0	0	0	0	0	0	0	0	0	0	0	0	0	0	0	0	0	0
7.93696403503418	89.99999999999901	0	0	0	0.93	0	-69.91894243908531	2.294723815036961	0.7044377469917474	0.004781319985877038	8.34497763449631e-05	0	0	0	44.45836462312796	0	0	1.377108143499869e-39	0	0	0	0	0	0	0	0	0	0	0	6.294456869991997e-39	0	0	0	0	0	0	6.294456869991997e-39	0	0
7.949957847595215	89.99999999999901	3.879409832270648e-34	-1.077613842297402e-34	0	0.93	0	-69.29411528986299	2.253702327556014	0.7536003987783685	0.004550307375191086	7.94178456748654e-05	0	0	0	44.45843690209337	-1.077613842297402e-35	0	0	3.007807509561283e-41	0	0	0	0	0	0	0	0	0	0	0	0	-8.52877645258049e-50	0	0	0	0	0	0	-8.52877645258049e-50
7.960959911346436	89.99999999999901	6.925476741742646e-28	-2.952145043680337e-28	9.157935311776059e-30	0.93	-9.384787268367258e-19	-68.68601877822036	2.255598748503281	0.8005976958653302	0.004347719245409793	7.588201578472418e-05	-9.807845059793269e-17	2.444318468509038e-17	1.591433930663897e-17	44.45851031104667	2.985580344501281e-24	-6.7942148838696e-21	3.567305070086335e-15	6.226801687039836e-17	3.73390150080168e-17	5.122664387977598e-17	9.143453481724314e-18	2.093976835784345e-17	-2.25365792636471e-17	-4.912424587749058e-17	3.299792719671859e-18	2.017596823549794e-17	1.406249984884349e-17	3.567334212898084e-15	3.567299463435033e-15	5.286866471883379e-18	1.40464310537964e-19	1.509190527143175e-17	-3.589499574386737e-17	5.893509986943621e-17	3.56728947899969e-15	3.567289581759971e-15	-6.620107734468442e-18	8.176757298433674e-20
7.977967023849487	89.99999999999901	0	0	0	0.93	0	-67.37043148234959	2.307934044428048	0.8771975242705607	0.003964574709054267	6.919488211429321e-05	1.008282330249921e-35	-5.383762647180112e-51	0	44.45855531486838	-1.616420763446103e-35	-1.460439086149119e-55	0	-4.039960988879252e-41	5.299673236773293e-36	-1.914226718997373e-50	0	0	-1.196391699373358e-51	1.43567003924803e-50	0	0	5.981958496866791e-52	0	2.636078651738627e-39	0	0	5.981958496866791e-52	0	0	0	2.636078651738627e-39	0	0
8.006982803344727	89.99999999999901	-1.10926322357915e-18	1.314132149187346e-27	2.967215602882051e-20	0.93	-6.316496964193753e-21	-66.80495228841474	2.349709043357822	0.901942147648676	0.003819462779988037	6.666220116816702e-05	-1.365214423397245e-17	1.346641575406881e-16	-7.565523838184087e-19	44.45924985776976	3.054493986036916e-26	-4.384318970211371e-18	0	-1.679783594892783e-17	4.232230528670931e-17	-3.920066302964178e-18	4.831708983671418e-19	0	-2.916044478366003e-19	5.634647124992438e-25	1.734357250411553e-23	-5.353496064425495e-17	1.13979435932286e-17	0	0	-4.714677698172382e-19	2.496542274309117e-18	-1.817381634083041e-17	-5.598457251889066e-17	-6.804596335689708e-17	0	0	-9.050986149245451e-19	-3.350234343075991e-19
8.01296591758728	89.99999999999901	0	0	0	0.93	0	-64.86469431816447	2.686179452225574	1.060691115717999	0.00340489432648517	5.942661667964098e-05	0	0	0	44.45956085769328	0	0	4.119281157323011e-39	1.836709923159824e-40	0	0	0	0	0	0	0	0	0	0	2.516875488084162e-38	0	0	0	0	0	0	2.516875488084162e-38	0	0
8.034969091415405	89.99999999999901	0	0	0	0.93	0	-63.78335697921726	2.413181379033356	1.152859889758131	0.003615565191739385	6.310351691635236e-05	0	0	0	44.45990692394763	0	0	0	0	0	0	0	0	0	0	0	0	0	0	0	0	0	0	0	0	0	0	0	0
8.039962768554688	89.99999999999901	0	0	0	0.93	0	-63.44322246894964	2.419236646069074	1.133496096185498	0.003537106168493333	6.173414863280999e-05	0	0	0	44.46060007917906	0	0	0	-3.42113882891801e-49	0	0	0	0	0	0	0	0	0	0	9.408807169215888e-46	0	0	0	0	0	0	9.408807169215888e-46	0	0
8.0449538230896	89.99999999999901	0	0	0	0.93	0	-62.7815336752568	2.51498279986866	1.079151717916995	0.003402119282647254	5.937818302778216e-05	0	0	0	44.46105197982653	0	0	0	0	0	0	0	0	0	0	0	0	0	1.441478351414213e-39	0	0	0	0	0	0	1.441478351414213e-39	0	0	0
8.048953771591187	89.99999999999901	1.034509288605506e-33	3.278993164626191e-34	0	0.93	0	-62.08980958539792	2.511276828448175	1.101565502082367	0.003537950611271107	6.174888693962682e-05	0	0	0	44.46163791545874	1.077710149593079e-35	0	0	0	0	0	0	0	0	0	0	0	0	0	0	0	0	0	0	0	0	0	0	0
8.053966760635376	89.99999999999901	0	0	0	0.93	0	-61.8700678855613	2.591451621540129	1.061490262219284	0.003491267893057912	6.093411980302584e-05	0	0	0	44.46242236690362	0	0	2.104714535737113e-38	7.346839692639297e-40	0	0	0	0	0	0	0	0	0	0	1.052357267868557e-38	0	0	0	0	0	0	1.052357267868557e-38	0	0
8.05795693397522	89.99999999999901	0	0	0	0.93	0	-61.54127306518896	2.61213857953208	1.071638669880187	0.003560053204982625	6.21346499731234e-05	0	0	0	44.4632549834958	0	0	0	0	0	0	0	0	0	0	0	0	0	0	0	0	0	0	0	0	0	0	0	0
8.061956882476807	89.99999999999901	0	0	0	0.93	0	-61.22592203642549	2.780496639688278	1.014011692159484	0.002766630180771479	4.828680583950822e-05	0	0	0	44.46382767931461	0	0	0	-4.591774807899561e-40	0	0	0	0	0	0	0	0	0	0	0	0	0	0	0	0	0	0	0	0
8.065958976745605	89.99999999999901	1.807936019681345e-28	-1.040543342702237e-25	5.80242696348867e-23	0.93	-5.064441488451467e-22	-60.46794003470157	2.809281239480118	1.020978227297384	0.00365487454449479	6.37895945487623e-05	-3.942930569406334e-15	-1.009993802495953e-16	2.68655955653295e-17	44.46434721967726	2.736399839692764e-19	-1.45043127817678e-17	1.687761401557672e-15	-1.436046369278295e-17	-1.503671731442413e-14	-2.088909554371683e-17	1.960215045433693e-16	-2.565713691205421e-16	-8.03777082743072e-15	-6.772823330964847e-16	2.884489214940997e-15	1.125626647574585e-16	2.965523571494492e-16	1.687681589353156e-15	1.687681751539483e-15	3.05434691306892e-20	4.599170024990843e-19	1.290569151733912e-15	-1.623753638799018e-15	1.907740440516887e-15	1.687681589425494e-15	1.68768174835752e-15	6.699651875121779e-21	1.749529335359941e-19
8.069956064224243	89.99999999999901	-8.031590668372825e-35	-5.17254644302753e-34	4.779275733397357e-58	0.93	-6.770640622312922e-58	-60.35659721375521	2.89151259077352	0.9942097631256988	0.003629925195104432	6.335414625566989e-05	0	0	0	44.46515249526331	4.67340507567718e-54	1.682425827243785e-52	4.704403584607944e-46	0	3.062762750395797e-49	0	0	-5.682860572023451e-51	-5.204303892274108e-50	-1.914226718997373e-50	-3.828453437994746e-50	-5.981958496866791e-52	0	0	0	0	5.841756344596475e-54	1.914226718997373e-50	1.645038586638367e-51	4.546288457618761e-50	0	0	4.381317258447356e-55	0
8.076956987380981	89.99999999999901	0	0	0	0.93	0	-59.82483755454626	2.901521880797682	0.9970751938351365	0.003751843773034154	6.548202685989283e-05	0	0	0	44.46578658099638	0	0	0	0	0	0	0	0	0	0	0	0	0	0	0	0	0	0	0	0	0	0	0	0
8.08296799659729	89.99999999999901	3.879409832270648e-34	0	0	0.93	0	-59.75319593881856	2.985211752041453	0.9586141151483566	0.003730571233340133	6.511075100197097e-05	0	0	0	44.46687106075628	0	0	0	6.842277657836021e-48	0	0	0	0	0	0	0	0	0	0	0	0	-8.500874311134212e-65	0	0	0	0	0	0	-8.500874311134212e-65
8.087952852249146	89.99999999999901	0	0	0	0.93	0	-59.66575213598311	3.044827616905818	0.9415931589588812	0.003709522129596638	6.474337483705313e-05	0	0	1.3843687631789e-46	44.46778644271944	0	0	0	4.460989980077488e-40	0	0	-2.348195424974728e-37	0	3.738724060541744e-52	0	0	1.683771628589691e-37	0	3.367543257179381e-37	3.01977205239625e-37	0	-1.055028966315921e-35	0	1.347017302871753e-36	0	0	3.01977205239625e-37	0	-1.055005704147051e-35
8.093947887420654	89.99999999999901	0	0	0	0.93	0	-59.69112204608513	2.992409993510798	0.9705096736458506	0.003715851492369461	6.485384305699204e-05	0	0	0	44.46871238343383	0	0	2.352201792303972e-46	0	0	0	0	0	0	0	0	0	0	7.84067264101324e-47	7.84067264101324e-47	0	0	0	0	0	7.84067264101324e-47	7.84067264101324e-47	0	0
